<?xml version="1.0" encoding="utf-8"?>
<!-- Generator: Adobe Illustrator 23.0.2, SVG Export Plug-In . SVG Version: 6.00 Build 0)  -->
<svg version="1.1" id="Capa_1" xmlns="http://www.w3.org/2000/svg" xmlns:xlink="http://www.w3.org/1999/xlink" x="0px" y="0px"
	 viewBox="0 0 256 256" style="enable-background:new 0 0 256 256;" xml:space="preserve">
<style type="text/css">
	.st0{clip-path:url(#SVGID_5_);}
	.st1{clip-path:url(#SVGID_6_);fill:url(#SVGID_7_);}
	.st2{clip-path:url(#SVGID_10_);}
	.st3{opacity:0.1;clip-path:url(#SVGID_11_);enable-background:new    ;}
	.st4{clip-path:url(#SVGID_13_);fill:#FFFFFF;}
</style>
<g>
	<g>
		<g>
			<g>
				<g>
					<g>
						<g>
							<defs>
								<path id="SVGID_1_" d="M257,224c0,17.7-14.3,32-32,32H33c-17.7,0-32-14.3-32-32V32C1,14.3,15.3,0,33,0h192
									c17.7,0,32,14.3,32,32L257,224L257,224z"/>
							</defs>
							<clipPath id="SVGID_2_">
								<use xlink:href="#SVGID_1_"  style="overflow:visible;"/>
							</clipPath>
						</g>
						<g>
							<defs>
								<path id="SVGID_3_" d="M257,224c0,17.7-14.3,32-32,32H33c-17.7,0-32-14.3-32-32V32C1,14.3,15.3,0,33,0h192
									c17.7,0,32,14.3,32,32L257,224L257,224z"/>
							</defs>
							<defs>
								<path id="SVGID_4_" d="M257,224c0,17.7-14.3,32-32,32H33c-17.7,0-32-14.3-32-32V32C1,14.3,15.3,0,33,0h192
									c17.7,0,32,14.3,32,32L257,224L257,224z"/>
							</defs>
							<clipPath id="SVGID_5_">
								<use xlink:href="#SVGID_3_"  style="overflow:visible;"/>
							</clipPath>
							<clipPath id="SVGID_6_" class="st0">
								<use xlink:href="#SVGID_4_"  style="overflow:visible;"/>
							</clipPath>
							
								<linearGradient id="SVGID_7_" gradientUnits="userSpaceOnUse" x1="179.25" y1="1091" x2="435.291" y2="1347.041" gradientTransform="matrix(1 0 0 1 -178 -1091)">
								<stop  offset="0" style="stop-color:#4EA6FF"/>
								<stop  offset="1" style="stop-color:#014B97"/>
							</linearGradient>
							<rect x="1.3" class="st1" width="256" height="256"/>
						</g>
						<g>
							<defs>
								<path id="SVGID_8_" d="M257,224c0,17.7-14.3,32-32,32H33c-17.7,0-32-14.3-32-32V32C1,14.3,15.3,0,33,0h192
									c17.7,0,32,14.3,32,32L257,224L257,224z"/>
							</defs>
							<defs>
								<path id="SVGID_9_" d="M257,224c0,17.7-14.3,32-32,32H33c-17.7,0-32-14.3-32-32V32C1,14.3,15.3,0,33,0h192
									c17.7,0,32,14.3,32,32L257,224L257,224z"/>
							</defs>
							<clipPath id="SVGID_10_">
								<use xlink:href="#SVGID_8_"  style="overflow:visible;"/>
							</clipPath>
							<clipPath id="SVGID_11_" class="st2">
								<use xlink:href="#SVGID_9_"  style="overflow:visible;"/>
							</clipPath>
							<polygon class="st3" points="214.1,54.4 256.7,97.1 256.7,256 150.1,256 29,134.9 81.1,101 40,61.4 68.8,32.6 106.4,70.2 
								152.3,116.1 							"/>
						</g>
					</g>
				</g>
			</g>
			<g>
				<g>
					<defs>
						<path id="SVGID_12_" d="M257,192c0,35.4-28.7,64-64,64H65c-35.4,0-64-28.7-64-64V64C1,28.7,29.7,0,65,0h128
							c35.4,0,64,28.7,64,64L257,192L257,192z"/>
					</defs>
					<clipPath id="SVGID_13_">
						<use xlink:href="#SVGID_12_"  style="overflow:visible;"/>
					</clipPath>
					<path class="st4" d="M204.1,107c-4.7-1.4-7.6-1.6-9.9-3.3c-2.1-1.6-11.1-2.2,8.9-15.9c26.5-19.1,18.4-22.8,17.5-26.5
						c-0.2-0.6-1.1-1.7-2.5-3.2c-7.5-7.8-29.2-25.5-29.2-25.5c30.2,25-16.3,54.8-31.1,42.3c-14-11.8-27.6-11-29-10.9
						c-2.5-0.1-15.4-0.3-28.7,10.9C85.5,87.4,38.9,57.6,69.1,32.6c0,0-30.8,25.1-31.7,28.8c-0.9,3.7-9,7.4,17.5,26.5
						c20,13.6,11.1,14.3,8.9,15.9c-2.3,1.7-5.2,1.9-9.9,3.3c-4.7,1.4-28.5,20.6-24.5,27.8c4,7.1,26.4,1,37.7-11.9
						C75.5,112,76.4,110,80.4,112c3.9,2,5.9,3.2,5.6,8.9c-0.2,5.7-1.6,33.5,1.7,38c3.3,4.5,16.2,13.9,16.2,13.9v31.1l14.9,19.5h10.6
						v0h10l14.9-19.5v-31.1c0,0,12.9-9.4,16.2-13.9c3.3-4.5,1.9-32.3,1.6-38c-0.2-5.7,1.7-7,5.6-8.9c3.9-2,4.8,0.1,13.2,10.9
						c11.3,12.9,33.7,19,37.7,11.9C232.6,127.6,208.9,108.4,204.1,107z"/>
				</g>
			</g>
		</g>
	</g>
</g>
</svg>
